<mxfile host="65bd71144e">
    <diagram id="kheMV6ptL9R3SUuz7jka" name="Page-1">
        <mxGraphModel dx="1023" dy="779" grid="1" gridSize="10" guides="1" tooltips="1" connect="1" arrows="1" fold="1" page="1" pageScale="1" pageWidth="850" pageHeight="1100" math="0" shadow="0">
            <root>
                <mxCell id="0"/>
                <mxCell id="1" parent="0"/>
                <mxCell id="7" style="edgeStyle=none;html=1;fontFamily=Verdana;fontColor=#000000;" edge="1" parent="1" source="2" target="4">
                    <mxGeometry relative="1" as="geometry"/>
                </mxCell>
                <mxCell id="8" style="edgeStyle=none;html=1;fontFamily=Verdana;fontColor=#000000;" edge="1" parent="1" source="2" target="3">
                    <mxGeometry relative="1" as="geometry"/>
                </mxCell>
                <mxCell id="2" value="&lt;font face=&quot;Verdana&quot; color=&quot;#000000&quot;&gt;HOME 🏠&lt;/font&gt;" style="whiteSpace=wrap;html=1;fillColor=#f9f7ed;strokeColor=#36393d;fontFamily=Lucida Console;labelBackgroundColor=none;labelBorderColor=none;" vertex="1" parent="1">
                    <mxGeometry x="330" y="40" width="120" height="30" as="geometry"/>
                </mxCell>
                <mxCell id="17" style="edgeStyle=none;html=1;fontFamily=Verdana;fontColor=#000000;" edge="1" parent="1" source="3" target="11">
                    <mxGeometry relative="1" as="geometry"/>
                </mxCell>
                <mxCell id="3" value="&lt;font face=&quot;Verdana&quot; color=&quot;#000000&quot;&gt;LOGIN&lt;/font&gt;" style="whiteSpace=wrap;html=1;fillColor=#f9f7ed;strokeColor=#36393d;fontFamily=Lucida Console;labelBackgroundColor=none;labelBorderColor=none;" vertex="1" parent="1">
                    <mxGeometry x="210" y="80" width="120" height="40" as="geometry"/>
                </mxCell>
                <mxCell id="9" style="edgeStyle=none;html=1;entryX=0.5;entryY=0;entryDx=0;entryDy=0;fontFamily=Verdana;fontColor=#000000;" edge="1" parent="1" source="4" target="5">
                    <mxGeometry relative="1" as="geometry"/>
                </mxCell>
                <mxCell id="10" style="edgeStyle=none;html=1;entryX=0.627;entryY=0.05;entryDx=0;entryDy=0;entryPerimeter=0;fontFamily=Verdana;fontColor=#000000;" edge="1" parent="1" source="4" target="6">
                    <mxGeometry relative="1" as="geometry"/>
                </mxCell>
                <mxCell id="4" value="&lt;font face=&quot;Verdana&quot; color=&quot;#000000&quot;&gt;CADASTRO&lt;/font&gt;" style="whiteSpace=wrap;html=1;fillColor=#f9f7ed;strokeColor=#36393d;fontFamily=Lucida Console;labelBackgroundColor=none;labelBorderColor=none;" vertex="1" parent="1">
                    <mxGeometry x="450" y="80" width="120" height="40" as="geometry"/>
                </mxCell>
                <mxCell id="12" style="edgeStyle=none;html=1;entryX=0.375;entryY=0.04;entryDx=0;entryDy=0;entryPerimeter=0;fontFamily=Verdana;fontColor=#000000;" edge="1" parent="1" source="5" target="11">
                    <mxGeometry relative="1" as="geometry"/>
                </mxCell>
                <mxCell id="5" value="&lt;font face=&quot;Verdana&quot; color=&quot;#000000&quot;&gt;USUÁRIO&lt;/font&gt;" style="whiteSpace=wrap;html=1;fillColor=#f9f7ed;strokeColor=#36393d;fontFamily=Lucida Console;labelBackgroundColor=none;labelBorderColor=none;" vertex="1" parent="1">
                    <mxGeometry x="400" y="150" width="75" height="40" as="geometry"/>
                </mxCell>
                <mxCell id="13" style="edgeStyle=none;html=1;entryX=0.633;entryY=0.04;entryDx=0;entryDy=0;entryPerimeter=0;fontFamily=Verdana;fontColor=#000000;" edge="1" parent="1" source="6" target="11">
                    <mxGeometry relative="1" as="geometry"/>
                </mxCell>
                <mxCell id="6" value="&lt;font face=&quot;Verdana&quot; color=&quot;#000000&quot;&gt;MÉDICO&lt;/font&gt;" style="whiteSpace=wrap;html=1;fillColor=#f9f7ed;strokeColor=#36393d;fontFamily=Lucida Console;labelBackgroundColor=none;labelBorderColor=none;" vertex="1" parent="1">
                    <mxGeometry x="495" y="150" width="75" height="40" as="geometry"/>
                </mxCell>
                <mxCell id="20" style="edgeStyle=none;html=1;entryX=0.75;entryY=0;entryDx=0;entryDy=0;fontFamily=Verdana;fontColor=#000000;" edge="1" parent="1" source="11" target="18">
                    <mxGeometry relative="1" as="geometry"/>
                </mxCell>
                <mxCell id="21" style="edgeStyle=none;html=1;fontFamily=Verdana;fontColor=#000000;" edge="1" parent="1" source="11" target="19">
                    <mxGeometry relative="1" as="geometry"/>
                </mxCell>
                <mxCell id="11" value="&lt;font face=&quot;Verdana&quot; color=&quot;#000000&quot;&gt;DASHBOARD&lt;br&gt;PAGINA INTERNA&lt;br&gt;&lt;/font&gt;" style="whiteSpace=wrap;html=1;fillColor=#f9f7ed;strokeColor=#36393d;fontFamily=Lucida Console;labelBackgroundColor=none;labelBorderColor=none;" vertex="1" parent="1">
                    <mxGeometry x="330" y="240" width="120" height="50" as="geometry"/>
                </mxCell>
                <mxCell id="26" style="edgeStyle=none;html=1;fontFamily=Verdana;fontColor=#000000;" edge="1" parent="1" source="18" target="25">
                    <mxGeometry relative="1" as="geometry"/>
                </mxCell>
                <mxCell id="31" style="edgeStyle=none;html=1;fontFamily=Verdana;fontColor=#000000;" edge="1" parent="1" source="18" target="29">
                    <mxGeometry relative="1" as="geometry"/>
                </mxCell>
                <mxCell id="32" style="edgeStyle=none;html=1;entryX=0.5;entryY=0;entryDx=0;entryDy=0;fontFamily=Verdana;fontColor=#000000;" edge="1" parent="1" source="18" target="30">
                    <mxGeometry relative="1" as="geometry"/>
                </mxCell>
                <mxCell id="18" value="&lt;font face=&quot;Verdana&quot; color=&quot;#000000&quot;&gt;USUÁRIO&lt;/font&gt;" style="whiteSpace=wrap;html=1;fillColor=#f9f7ed;strokeColor=#36393d;fontFamily=Lucida Console;labelBackgroundColor=none;labelBorderColor=none;" vertex="1" parent="1">
                    <mxGeometry x="270" y="320" width="75" height="40" as="geometry"/>
                </mxCell>
                <mxCell id="22" style="edgeStyle=none;html=1;fontFamily=Verdana;fontColor=#000000;" edge="1" parent="1" source="19">
                    <mxGeometry relative="1" as="geometry">
                        <mxPoint x="462.5" y="400" as="targetPoint"/>
                    </mxGeometry>
                </mxCell>
                <mxCell id="28" style="edgeStyle=none;html=1;entryX=0.36;entryY=-0.025;entryDx=0;entryDy=0;entryPerimeter=0;fontFamily=Verdana;fontColor=#000000;" edge="1" parent="1" source="19" target="24">
                    <mxGeometry relative="1" as="geometry"/>
                </mxCell>
                <mxCell id="19" value="&lt;font face=&quot;Verdana&quot; color=&quot;#000000&quot;&gt;MÉDICO&lt;/font&gt;" style="whiteSpace=wrap;html=1;fillColor=#f9f7ed;strokeColor=#36393d;fontFamily=Lucida Console;labelBackgroundColor=none;labelBorderColor=none;" vertex="1" parent="1">
                    <mxGeometry x="425" y="320" width="75" height="40" as="geometry"/>
                </mxCell>
                <mxCell id="38" style="edgeStyle=none;html=1;entryX=0.5;entryY=0;entryDx=0;entryDy=0;fontFamily=Verdana;fontColor=#000000;" edge="1" parent="1" source="24" target="37">
                    <mxGeometry relative="1" as="geometry"/>
                </mxCell>
                <mxCell id="24" value="&lt;font face=&quot;Verdana&quot; color=&quot;#000000&quot;&gt;LOGOUT&lt;/font&gt;" style="whiteSpace=wrap;html=1;fillColor=#f9f7ed;strokeColor=#36393d;fontFamily=Lucida Console;labelBackgroundColor=none;labelBorderColor=none;" vertex="1" parent="1">
                    <mxGeometry x="600" y="400" width="75" height="60" as="geometry"/>
                </mxCell>
                <mxCell id="36" style="edgeStyle=none;html=1;fontFamily=Verdana;fontColor=#000000;" edge="1" parent="1" source="25" target="35">
                    <mxGeometry relative="1" as="geometry"/>
                </mxCell>
                <mxCell id="25" value="&lt;font face=&quot;Verdana&quot; color=&quot;#000000&quot;&gt;LOGOUT&lt;/font&gt;" style="whiteSpace=wrap;html=1;fillColor=#f9f7ed;strokeColor=#36393d;fontFamily=Lucida Console;labelBackgroundColor=none;labelBorderColor=none;" vertex="1" parent="1">
                    <mxGeometry x="80" y="400" width="75" height="60" as="geometry"/>
                </mxCell>
                <mxCell id="39" style="edgeStyle=none;html=1;fontFamily=Verdana;fontColor=#000000;" edge="1" parent="1" source="29">
                    <mxGeometry relative="1" as="geometry">
                        <mxPoint x="222.5" y="520" as="targetPoint"/>
                    </mxGeometry>
                </mxCell>
                <mxCell id="29" value="&lt;font face=&quot;Verdana&quot; color=&quot;#000000&quot;&gt;AGENDAR CONSULTA&lt;/font&gt;" style="whiteSpace=wrap;html=1;fillColor=#f9f7ed;strokeColor=#36393d;fontFamily=Lucida Console;labelBackgroundColor=none;labelBorderColor=none;" vertex="1" parent="1">
                    <mxGeometry x="180" y="400" width="85" height="60" as="geometry"/>
                </mxCell>
                <mxCell id="40" style="edgeStyle=none;html=1;fontFamily=Verdana;fontColor=#000000;" edge="1" parent="1" source="30">
                    <mxGeometry relative="1" as="geometry">
                        <mxPoint x="325" y="520" as="targetPoint"/>
                    </mxGeometry>
                </mxCell>
                <mxCell id="30" value="&lt;font face=&quot;Verdana&quot; color=&quot;#000000&quot;&gt;VER CONSULTAS AGENDADAS&lt;/font&gt;" style="whiteSpace=wrap;html=1;fillColor=#f9f7ed;strokeColor=#36393d;fontFamily=Lucida Console;labelBackgroundColor=none;labelBorderColor=none;" vertex="1" parent="1">
                    <mxGeometry x="280" y="400" width="90" height="60" as="geometry"/>
                </mxCell>
                <mxCell id="42" style="edgeStyle=none;html=1;fontFamily=Verdana;fontColor=#000000;entryX=0.5;entryY=0;entryDx=0;entryDy=0;" edge="1" parent="1" source="33" target="52">
                    <mxGeometry relative="1" as="geometry">
                        <mxPoint x="547.5" y="520" as="targetPoint"/>
                    </mxGeometry>
                </mxCell>
                <mxCell id="33" value="&lt;font face=&quot;Verdana&quot; color=&quot;#000000&quot;&gt;VER AGENDA&lt;/font&gt;" style="whiteSpace=wrap;html=1;fillColor=#f9f7ed;strokeColor=#36393d;fontFamily=Lucida Console;labelBackgroundColor=none;labelBorderColor=none;" vertex="1" parent="1">
                    <mxGeometry x="510" y="400" width="75" height="60" as="geometry"/>
                </mxCell>
                <mxCell id="41" style="edgeStyle=none;html=1;fontFamily=Verdana;fontColor=#000000;" edge="1" parent="1" source="34">
                    <mxGeometry relative="1" as="geometry">
                        <mxPoint x="447.5" y="520" as="targetPoint"/>
                    </mxGeometry>
                </mxCell>
                <mxCell id="34" value="&lt;font face=&quot;Verdana&quot; color=&quot;#000000&quot;&gt;CRIAR AGENDAMENTOS&lt;/font&gt;" style="whiteSpace=wrap;html=1;fillColor=#f9f7ed;strokeColor=#36393d;fontFamily=Lucida Console;labelBackgroundColor=none;labelBorderColor=none;" vertex="1" parent="1">
                    <mxGeometry x="390" y="400" width="115" height="60" as="geometry"/>
                </mxCell>
                <mxCell id="35" value="&lt;font face=&quot;Verdana&quot; color=&quot;#000000&quot;&gt;HOME 🏠&lt;/font&gt;" style="whiteSpace=wrap;html=1;fillColor=#f9f7ed;strokeColor=#36393d;fontFamily=Lucida Console;labelBackgroundColor=none;labelBorderColor=none;" vertex="1" parent="1">
                    <mxGeometry x="10" y="470" width="90" height="30" as="geometry"/>
                </mxCell>
                <mxCell id="37" value="&lt;font face=&quot;Verdana&quot; color=&quot;#000000&quot;&gt;HOME 🏠&lt;/font&gt;" style="whiteSpace=wrap;html=1;fillColor=#f9f7ed;strokeColor=#36393d;fontFamily=Lucida Console;labelBackgroundColor=none;labelBorderColor=none;" vertex="1" parent="1">
                    <mxGeometry x="680" y="450" width="90" height="30" as="geometry"/>
                </mxCell>
                <mxCell id="45" style="edgeStyle=none;html=1;fontFamily=Verdana;fontColor=#000000;" edge="1" parent="1" source="43" target="44">
                    <mxGeometry relative="1" as="geometry"/>
                </mxCell>
                <mxCell id="43" value="&lt;font face=&quot;Verdana&quot; color=&quot;#000000&quot;&gt;PEQUISAR POR ESPECIALIDADE, HORÁRIO, MODALIDADE&lt;/font&gt;" style="whiteSpace=wrap;html=1;fillColor=#f9f7ed;strokeColor=#36393d;fontFamily=Lucida Console;labelBackgroundColor=none;labelBorderColor=none;" vertex="1" parent="1">
                    <mxGeometry x="160" y="520" width="120" height="100" as="geometry"/>
                </mxCell>
                <mxCell id="46" style="edgeStyle=none;html=1;fontFamily=Verdana;fontColor=#000000;" edge="1" parent="1" source="44">
                    <mxGeometry relative="1" as="geometry">
                        <mxPoint x="220" y="750" as="targetPoint"/>
                    </mxGeometry>
                </mxCell>
                <mxCell id="44" value="&lt;font face=&quot;Verdana&quot; color=&quot;#000000&quot;&gt;LISTA DE MÉDICOS&lt;/font&gt;" style="whiteSpace=wrap;html=1;fillColor=#f9f7ed;strokeColor=#36393d;fontFamily=Lucida Console;labelBackgroundColor=none;labelBorderColor=none;" vertex="1" parent="1">
                    <mxGeometry x="160" y="650" width="120" height="50" as="geometry"/>
                </mxCell>
                <mxCell id="49" style="edgeStyle=none;html=1;fontFamily=Verdana;fontColor=#000000;" edge="1" parent="1" source="47" target="48">
                    <mxGeometry relative="1" as="geometry"/>
                </mxCell>
                <mxCell id="47" value="&lt;font face=&quot;Verdana&quot; color=&quot;#000000&quot;&gt;MÉDICO ESPECÍFICO&lt;/font&gt;" style="whiteSpace=wrap;html=1;fillColor=#f9f7ed;strokeColor=#36393d;fontFamily=Lucida Console;labelBackgroundColor=none;labelBorderColor=none;" vertex="1" parent="1">
                    <mxGeometry x="160" y="750" width="120" height="50" as="geometry"/>
                </mxCell>
                <mxCell id="48" value="&lt;font face=&quot;Verdana&quot; color=&quot;#000000&quot;&gt;REALIZAR AGENDAMENTO DA CONSULTA&lt;/font&gt;" style="whiteSpace=wrap;html=1;fillColor=#f9f7ed;strokeColor=#36393d;fontFamily=Lucida Console;labelBackgroundColor=none;labelBorderColor=none;" vertex="1" parent="1">
                    <mxGeometry x="160" y="830" width="120" height="60" as="geometry"/>
                </mxCell>
                <mxCell id="50" value="&lt;font face=&quot;Verdana&quot; color=&quot;#000000&quot;&gt;LISTA COM AS CONSULTAS AGENDADAS&lt;/font&gt;" style="whiteSpace=wrap;html=1;fillColor=#f9f7ed;strokeColor=#36393d;fontFamily=Lucida Console;labelBackgroundColor=none;labelBorderColor=none;" vertex="1" parent="1">
                    <mxGeometry x="290" y="520" width="100" height="60" as="geometry"/>
                </mxCell>
                <mxCell id="51" value="&lt;font face=&quot;Verdana&quot; color=&quot;#000000&quot;&gt;DEFINIR HORÁRIOS, PREÇO, CONSULTORIO, MODALIDADE... DAS CONSULTAS&lt;/font&gt;" style="whiteSpace=wrap;html=1;fillColor=#f9f7ed;strokeColor=#36393d;fontFamily=Lucida Console;labelBackgroundColor=none;labelBorderColor=none;" vertex="1" parent="1">
                    <mxGeometry x="400" y="520" width="115" height="100" as="geometry"/>
                </mxCell>
                <mxCell id="52" value="&lt;font face=&quot;Verdana&quot; color=&quot;#000000&quot;&gt;CALENDÁRIO COM AS CONSULTAS&lt;/font&gt;" style="whiteSpace=wrap;html=1;fillColor=#f9f7ed;strokeColor=#36393d;fontFamily=Lucida Console;labelBackgroundColor=none;labelBorderColor=none;" vertex="1" parent="1">
                    <mxGeometry x="525" y="520" width="145" height="70" as="geometry"/>
                </mxCell>
            </root>
        </mxGraphModel>
    </diagram>
</mxfile>